<?xml version="1.0" encoding="UTF-8" standalone="no"?><!DOCTYPE svg PUBLIC "-//W3C//DTD SVG 1.1//EN" "http://www.w3.org/Graphics/SVG/1.1/DTD/svg11.dtd"><!-- Generated by graphviz version 2.40.1 (20161225.0304)
 --><!-- Title: G Pages: 1 --><svg xmlns="http://www.w3.org/2000/svg" xmlns:xlink="http://www.w3.org/1999/xlink" width="398pt" height="1957pt" viewBox="0.00 0.00 397.56 1956.53">
<g id="graph0" class="graph" transform="scale(1 1) rotate(0) translate(4 1952.5253)">
<title>G</title>
<polygon fill="#ffffff" stroke="transparent" points="-4,4 -4,-1952.5253 393.5634,-1952.5253 393.5634,4 -4,4"/>
<!-- 100 -->
<g id="node1" class="node">
<title>100</title>
<ellipse fill="none" stroke="#000000" cx="359.5026" cy="-1926.5253" rx="18" ry="18"/>
<ellipse fill="none" stroke="#000000" cx="359.5026" cy="-1926.5253" rx="22" ry="22"/>
<text text-anchor="middle" x="359.5026" y="-1922.3253" font-family="Times,serif" font-size="14.00" fill="#000000">+</text>
</g>
<!-- 101 -->
<g id="node2" class="node">
<title>101</title>
<ellipse fill="none" stroke="#000000" cx="359.5026" cy="-1860.5253" rx="21.8666" ry="21.8666"/>
<ellipse fill="none" stroke="#000000" cx="359.5026" cy="-1860.5253" rx="25.8554" ry="25.8554"/>
<text text-anchor="middle" x="359.5026" y="-1856.3253" font-family="Times,serif" font-size="14.00" fill="#000000">++</text>
</g>
<!-- 102 -->
<g id="node3" class="node">
<title>102</title>
<ellipse fill="none" stroke="#000000" cx="359.5026" cy="-1790.5253" rx="21.8666" ry="21.8666"/>
<ellipse fill="none" stroke="#000000" cx="359.5026" cy="-1790.5253" rx="25.8554" ry="25.8554"/>
<text text-anchor="middle" x="359.5026" y="-1786.3253" font-family="Times,serif" font-size="14.00" fill="#000000">+=</text>
</g>
<!-- 200 -->
<g id="node4" class="node">
<title>200</title>
<ellipse fill="none" stroke="#000000" cx="359.5026" cy="-1724.5253" rx="18" ry="18"/>
<ellipse fill="none" stroke="#000000" cx="359.5026" cy="-1724.5253" rx="22" ry="22"/>
<text text-anchor="middle" x="359.5026" y="-1720.3253" font-family="Times,serif" font-size="14.00" fill="#000000">-</text>
</g>
<!-- 201 -->
<g id="node5" class="node">
<title>201</title>
<ellipse fill="none" stroke="#000000" cx="359.5026" cy="-1662.5253" rx="18" ry="18"/>
<ellipse fill="none" stroke="#000000" cx="359.5026" cy="-1662.5253" rx="22" ry="22"/>
<text text-anchor="middle" x="359.5026" y="-1658.3253" font-family="Times,serif" font-size="14.00" fill="#000000">--</text>
</g>
<!-- 300 -->
<g id="node6" class="node">
<title>300</title>
<ellipse fill="none" stroke="#000000" cx="359.5026" cy="-1542.5253" rx="18" ry="18"/>
<ellipse fill="none" stroke="#000000" cx="359.5026" cy="-1542.5253" rx="22" ry="22"/>
<text text-anchor="middle" x="359.5026" y="-1538.3253" font-family="Times,serif" font-size="14.00" fill="#000000">*</text>
</g>
<!-- 400 -->
<g id="node7" class="node">
<title>400</title>
<ellipse fill="none" stroke="#000000" cx="359.5026" cy="-1420.5253" rx="18" ry="18"/>
<ellipse fill="none" stroke="#000000" cx="359.5026" cy="-1420.5253" rx="22" ry="22"/>
<text text-anchor="middle" x="359.5026" y="-1416.3253" font-family="Times,serif" font-size="14.00" fill="#000000">/</text>
</g>
<!-- 402 -->
<g id="node8" class="node">
<title>402</title>
<ellipse fill="none" stroke="#000000" cx="359.5026" cy="-1357.5253" rx="19.3038" ry="19.3038"/>
<ellipse fill="none" stroke="#000000" cx="359.5026" cy="-1357.5253" rx="23.3326" ry="23.3326"/>
<text text-anchor="middle" x="359.5026" y="-1353.3253" font-family="Times,serif" font-size="14.00" fill="#000000">/=</text>
</g>
<!-- 500 -->
<g id="node9" class="node">
<title>500</title>
<ellipse fill="none" stroke="#000000" cx="359.5026" cy="-1294.5253" rx="18" ry="18"/>
<ellipse fill="none" stroke="#000000" cx="359.5026" cy="-1294.5253" rx="22" ry="22"/>
<text text-anchor="middle" x="359.5026" y="-1290.3253" font-family="Times,serif" font-size="14.00" fill="#000000">&gt;</text>
</g>
<!-- 501 -->
<g id="node10" class="node">
<title>501</title>
<ellipse fill="none" stroke="#000000" cx="359.5026" cy="-1228.5253" rx="21.8666" ry="21.8666"/>
<ellipse fill="none" stroke="#000000" cx="359.5026" cy="-1228.5253" rx="25.8554" ry="25.8554"/>
<text text-anchor="middle" x="359.5026" y="-1224.3253" font-family="Times,serif" font-size="14.00" fill="#000000">&gt;&gt;</text>
</g>
<!-- 502 -->
<g id="node11" class="node">
<title>502</title>
<ellipse fill="none" stroke="#000000" cx="359.5026" cy="-1158.5253" rx="21.8666" ry="21.8666"/>
<ellipse fill="none" stroke="#000000" cx="359.5026" cy="-1158.5253" rx="25.8554" ry="25.8554"/>
<text text-anchor="middle" x="359.5026" y="-1154.3253" font-family="Times,serif" font-size="14.00" fill="#000000">&gt;=</text>
</g>
<!-- 600 -->
<g id="node12" class="node">
<title>600</title>
<ellipse fill="none" stroke="#000000" cx="359.5026" cy="-1092.5253" rx="18" ry="18"/>
<ellipse fill="none" stroke="#000000" cx="359.5026" cy="-1092.5253" rx="22" ry="22"/>
<text text-anchor="middle" x="359.5026" y="-1088.3253" font-family="Times,serif" font-size="14.00" fill="#000000">&lt;</text>
</g>
<!-- 601 -->
<g id="node13" class="node">
<title>601</title>
<ellipse fill="none" stroke="#000000" cx="359.5026" cy="-1026.5253" rx="21.8666" ry="21.8666"/>
<ellipse fill="none" stroke="#000000" cx="359.5026" cy="-1026.5253" rx="25.8554" ry="25.8554"/>
<text text-anchor="middle" x="359.5026" y="-1022.3253" font-family="Times,serif" font-size="14.00" fill="#000000">&lt;&lt;</text>
</g>
<!-- 602 -->
<g id="node14" class="node">
<title>602</title>
<ellipse fill="none" stroke="#000000" cx="359.5026" cy="-956.5253" rx="21.8666" ry="21.8666"/>
<ellipse fill="none" stroke="#000000" cx="359.5026" cy="-956.5253" rx="25.8554" ry="25.8554"/>
<text text-anchor="middle" x="359.5026" y="-952.3253" font-family="Times,serif" font-size="14.00" fill="#000000">&lt;=</text>
</g>
<!-- 700 -->
<g id="node15" class="node">
<title>700</title>
<ellipse fill="none" stroke="#000000" cx="359.5026" cy="-890.5253" rx="18" ry="18"/>
<ellipse fill="none" stroke="#000000" cx="359.5026" cy="-890.5253" rx="22" ry="22"/>
<text text-anchor="middle" x="359.5026" y="-886.3253" font-family="Times,serif" font-size="14.00" fill="#000000">=</text>
</g>
<!-- 701 -->
<g id="node16" class="node">
<title>701</title>
<ellipse fill="none" stroke="#000000" cx="359.5026" cy="-824.5253" rx="21.8666" ry="21.8666"/>
<ellipse fill="none" stroke="#000000" cx="359.5026" cy="-824.5253" rx="25.8554" ry="25.8554"/>
<text text-anchor="middle" x="359.5026" y="-820.3253" font-family="Times,serif" font-size="14.00" fill="#000000">==</text>
</g>
<!-- 800 -->
<g id="node17" class="node">
<title>800</title>
<ellipse fill="none" stroke="#000000" cx="359.5026" cy="-758.5253" rx="18" ry="18"/>
<ellipse fill="none" stroke="#000000" cx="359.5026" cy="-758.5253" rx="22" ry="22"/>
<text text-anchor="middle" x="359.5026" y="-754.3253" font-family="Times,serif" font-size="14.00" fill="#000000">!</text>
</g>
<!-- 801 -->
<g id="node18" class="node">
<title>801</title>
<ellipse fill="none" stroke="#000000" cx="359.5026" cy="-694.5253" rx="19.8619" ry="19.8619"/>
<ellipse fill="none" stroke="#000000" cx="359.5026" cy="-694.5253" rx="23.8954" ry="23.8954"/>
<text text-anchor="middle" x="359.5026" y="-690.3253" font-family="Times,serif" font-size="14.00" fill="#000000">!=</text>
</g>
<!-- 900 -->
<g id="node19" class="node">
<title>900</title>
<ellipse fill="none" stroke="#000000" cx="359.5026" cy="-630.5253" rx="18.5887" ry="18.5887"/>
<ellipse fill="none" stroke="#000000" cx="359.5026" cy="-630.5253" rx="22.5974" ry="22.5974"/>
<text text-anchor="middle" x="359.5026" y="-626.3253" font-family="Times,serif" font-size="14.00" fill="#000000">&amp;</text>
</g>
<!-- 901 -->
<g id="node20" class="node">
<title>901</title>
<ellipse fill="none" stroke="#000000" cx="359.5026" cy="-561.5253" rx="23.9892" ry="23.9892"/>
<ellipse fill="none" stroke="#000000" cx="359.5026" cy="-561.5253" rx="27.9884" ry="27.9884"/>
<text text-anchor="middle" x="359.5026" y="-557.3253" font-family="Times,serif" font-size="14.00" fill="#000000">&amp;=</text>
</g>
<!-- 902 -->
<g id="node21" class="node">
<title>902</title>
<ellipse fill="none" stroke="#000000" cx="359.5026" cy="-485.5253" rx="26.1136" ry="26.1136"/>
<ellipse fill="none" stroke="#000000" cx="359.5026" cy="-485.5253" rx="30.1217" ry="30.1217"/>
<text text-anchor="middle" x="359.5026" y="-481.3253" font-family="Times,serif" font-size="14.00" fill="#000000">&amp;&amp;</text>
</g>
<!-- 1000 -->
<g id="node22" class="node">
<title>1000</title>
<ellipse fill="none" stroke="#000000" cx="359.5026" cy="-415.5253" rx="18" ry="18"/>
<ellipse fill="none" stroke="#000000" cx="359.5026" cy="-415.5253" rx="22" ry="22"/>
<text text-anchor="middle" x="359.5026" y="-411.3253" font-family="Times,serif" font-size="14.00" fill="#000000">|</text>
</g>
<!-- 1001 -->
<g id="node23" class="node">
<title>1001</title>
<ellipse fill="none" stroke="#000000" cx="359.5026" cy="-353.5253" rx="18.3409" ry="18.3409"/>
<ellipse fill="none" stroke="#000000" cx="359.5026" cy="-353.5253" rx="22.3253" ry="22.3253"/>
<text text-anchor="middle" x="359.5026" y="-349.3253" font-family="Times,serif" font-size="14.00" fill="#000000">|=</text>
</g>
<!-- 1002 -->
<g id="node24" class="node">
<title>1002</title>
<ellipse fill="none" stroke="#000000" cx="359.5026" cy="-291.5253" rx="18" ry="18"/>
<ellipse fill="none" stroke="#000000" cx="359.5026" cy="-291.5253" rx="22" ry="22"/>
<text text-anchor="middle" x="359.5026" y="-287.3253" font-family="Times,serif" font-size="14.00" fill="#000000">||</text>
</g>
<!-- 1100 -->
<g id="node25" class="node">
<title>1100</title>
<ellipse fill="none" stroke="#000000" cx="359.5026" cy="-229.5253" rx="18" ry="18"/>
<ellipse fill="none" stroke="#000000" cx="359.5026" cy="-229.5253" rx="22" ry="22"/>
<text text-anchor="middle" x="359.5026" y="-225.3253" font-family="Times,serif" font-size="14.00" fill="#000000">^</text>
</g>
<!-- 1101 -->
<g id="node26" class="node">
<title>1101</title>
<ellipse fill="none" stroke="#000000" cx="359.5026" cy="-164.5253" rx="21.0188" ry="21.0188"/>
<ellipse fill="none" stroke="#000000" cx="359.5026" cy="-164.5253" rx="25.0204" ry="25.0204"/>
<text text-anchor="middle" x="359.5026" y="-160.3253" font-family="Times,serif" font-size="14.00" fill="#000000">^=</text>
</g>
<!-- 1200 -->
<g id="node27" class="node">
<title>1200</title>
<ellipse fill="none" stroke="#000000" cx="359.5026" cy="-98.5253" rx="19.146" ry="19.146"/>
<ellipse fill="none" stroke="#000000" cx="359.5026" cy="-98.5253" rx="23.1598" ry="23.1598"/>
<text text-anchor="middle" x="359.5026" y="-94.3253" font-family="Times,serif" font-size="14.00" fill="#000000">%</text>
</g>
<!-- 1201 -->
<g id="node28" class="node">
<title>1201</title>
<ellipse fill="none" stroke="#000000" cx="359.5026" cy="-28.5253" rx="24.5471" ry="24.5471"/>
<ellipse fill="none" stroke="#000000" cx="359.5026" cy="-28.5253" rx="28.5507" ry="28.5507"/>
<text text-anchor="middle" x="359.5026" y="-24.3253" font-family="Times,serif" font-size="14.00" fill="#000000">%=</text>
</g>
<!-- 13 -->
<g id="node29" class="node">
<title>13</title>
<ellipse fill="none" stroke="#000000" cx="177.6606" cy="-1873.5253" rx="18" ry="18"/>
<ellipse fill="none" stroke="#000000" cx="177.6606" cy="-1873.5253" rx="22" ry="22"/>
<text text-anchor="middle" x="177.6606" y="-1869.3253" font-family="Times,serif" font-size="14.00" fill="#000000">,</text>
</g>
<!-- 14 -->
<g id="node30" class="node">
<title>14</title>
<ellipse fill="none" stroke="#000000" cx="177.6606" cy="-1811.5253" rx="18" ry="18"/>
<ellipse fill="none" stroke="#000000" cx="177.6606" cy="-1811.5253" rx="22" ry="22"/>
<text text-anchor="middle" x="177.6606" y="-1807.3253" font-family="Times,serif" font-size="14.00" fill="#000000">;</text>
</g>
<!-- 0 -->
<g id="node31" class="node">
<title>0</title>
<ellipse fill="none" stroke="#000000" cx="18" cy="-1196.5253" rx="18" ry="18"/>
<text text-anchor="middle" x="18" y="-1192.3253" font-family="Times,serif" font-size="14.00" fill="#000000">0</text>
</g>
<!-- 0&#45;&gt;13 -->
<g id="edge43" class="edge">
<title>0-&gt;13</title>
<path fill="none" stroke="#000000" d="M19.8253,-1214.7442C26.2136,-1276.2107 49.408,-1481.3344 90,-1646.5253 111.9227,-1735.7406 114.0361,-1760.6268 155.6606,-1842.5253 156.4623,-1844.1028 157.3375,-1845.6898 158.2618,-1847.2672"/>
<polygon fill="#000000" stroke="#000000" points="155.5683,-1849.5491 163.9258,-1856.0609 161.4533,-1845.7586 155.5683,-1849.5491"/>
<text text-anchor="middle" x="95.8303" y="-1696.7253" font-family="Times,serif" font-size="14.00" fill="#000000">,</text>
</g>
<!-- 0&#45;&gt;14 -->
<g id="edge44" class="edge">
<title>0-&gt;14</title>
<path fill="none" stroke="#000000" d="M19.7008,-1214.5245C27.1513,-1287.9314 60.8779,-1570.7324 155.6606,-1780.5253 156.3891,-1782.1379 157.2064,-1783.7527 158.0858,-1785.3517"/>
<polygon fill="#000000" stroke="#000000" points="155.3515,-1787.5809 163.617,-1794.2091 161.2889,-1783.8732 155.3515,-1787.5809"/>
<text text-anchor="middle" x="95.8303" y="-1629.7253" font-family="Times,serif" font-size="14.00" fill="#000000">;</text>
</g>
<!-- 1 -->
<g id="node32" class="node">
<title>1</title>
<ellipse fill="none" stroke="#000000" cx="177.6606" cy="-1753.5253" rx="18" ry="18"/>
<text text-anchor="middle" x="177.6606" y="-1749.3253" font-family="Times,serif" font-size="14.00" fill="#000000">1</text>
</g>
<!-- 0&#45;&gt;1 -->
<g id="edge1" class="edge">
<title>0-&gt;1</title>
<path fill="none" stroke="#000000" d="M23.042,-1214.1152C46.1329,-1294.6714 141.862,-1628.6366 169.9073,-1726.4767"/>
<polygon fill="#000000" stroke="#000000" points="166.5765,-1727.5592 172.6966,-1736.2076 173.3056,-1725.6303 166.5765,-1727.5592"/>
<text text-anchor="middle" x="95.8303" y="-1478.7253" font-family="Times,serif" font-size="14.00" fill="#000000">+</text>
</g>
<!-- 2 -->
<g id="node33" class="node">
<title>2</title>
<ellipse fill="none" stroke="#000000" cx="177.6606" cy="-1632.5253" rx="18" ry="18"/>
<text text-anchor="middle" x="177.6606" y="-1628.3253" font-family="Times,serif" font-size="14.00" fill="#000000">2</text>
</g>
<!-- 0&#45;&gt;2 -->
<g id="edge5" class="edge">
<title>0-&gt;2</title>
<path fill="none" stroke="#000000" d="M24.2589,-1213.617C48.7521,-1280.503 138.2128,-1524.8017 167.9649,-1606.0485"/>
<polygon fill="#000000" stroke="#000000" points="164.7197,-1607.3651 171.445,-1615.5518 171.2929,-1604.958 164.7197,-1607.3651"/>
<text text-anchor="middle" x="95.8303" y="-1418.7253" font-family="Times,serif" font-size="14.00" fill="#000000">-</text>
</g>
<!-- 3 -->
<g id="node35" class="node">
<title>3</title>
<ellipse fill="none" stroke="#000000" cx="177.6606" cy="-1481.5253" rx="18" ry="18"/>
<text text-anchor="middle" x="177.6606" y="-1477.3253" font-family="Times,serif" font-size="14.00" fill="#000000">3</text>
</g>
<!-- 0&#45;&gt;3 -->
<g id="edge9" class="edge">
<title>0-&gt;3</title>
<path fill="none" stroke="#000000" d="M26.8115,-1212.2541C53.1919,-1259.3441 131.6942,-1399.4737 163.771,-1456.7319"/>
<polygon fill="#000000" stroke="#000000" points="160.7386,-1458.4802 168.6796,-1465.4938 166.8456,-1455.0589 160.7386,-1458.4802"/>
<text text-anchor="middle" x="95.8303" y="-1342.7253" font-family="Times,serif" font-size="14.00" fill="#000000">*</text>
</g>
<!-- 4 -->
<g id="node37" class="node">
<title>4</title>
<ellipse fill="none" stroke="#000000" cx="177.6606" cy="-1357.5253" rx="18" ry="18"/>
<text text-anchor="middle" x="177.6606" y="-1353.3253" font-family="Times,serif" font-size="14.00" fill="#000000">4</text>
</g>
<!-- 0&#45;&gt;4 -->
<g id="edge12" class="edge">
<title>0-&gt;4</title>
<path fill="none" stroke="#000000" d="M30.7958,-1209.4285C58.4721,-1237.337 124.0847,-1303.5 157.4399,-1337.135"/>
<polygon fill="#000000" stroke="#000000" points="155.2772,-1339.9247 164.8039,-1344.5607 160.2476,-1334.9956 155.2772,-1339.9247"/>
<text text-anchor="middle" x="95.8303" y="-1280.7253" font-family="Times,serif" font-size="14.00" fill="#000000">/</text>
</g>
<!-- 5 -->
<g id="node38" class="node">
<title>5</title>
<ellipse fill="none" stroke="#000000" cx="177.6606" cy="-1225.5253" rx="18" ry="18"/>
<text text-anchor="middle" x="177.6606" y="-1221.3253" font-family="Times,serif" font-size="14.00" fill="#000000">5</text>
</g>
<!-- 0&#45;&gt;5 -->
<g id="edge15" class="edge">
<title>0-&gt;5</title>
<path fill="none" stroke="#000000" d="M36.0047,-1199.7956C63.6743,-1204.8214 116.8763,-1214.4848 149.622,-1220.4325"/>
<polygon fill="#000000" stroke="#000000" points="149.0122,-1223.879 159.4767,-1222.2225 150.2632,-1216.9916 149.0122,-1223.879"/>
<text text-anchor="middle" x="95.8303" y="-1214.7253" font-family="Times,serif" font-size="14.00" fill="#000000">&gt;</text>
</g>
<!-- 6 -->
<g id="node39" class="node">
<title>6</title>
<ellipse fill="none" stroke="#000000" cx="177.6606" cy="-1059.5253" rx="18" ry="18"/>
<text text-anchor="middle" x="177.6606" y="-1055.3253" font-family="Times,serif" font-size="14.00" fill="#000000">6</text>
</g>
<!-- 0&#45;&gt;6 -->
<g id="edge19" class="edge">
<title>0-&gt;6</title>
<path fill="none" stroke="#000000" d="M34.328,-1188.1943C51.8912,-1178.8321 80.1857,-1162.565 101.6606,-1144.5253 123.9346,-1125.8144 145.6798,-1100.576 160.1635,-1082.4697"/>
<polygon fill="#000000" stroke="#000000" points="163.2268,-1084.2368 166.661,-1074.2139 157.726,-1079.9076 163.2268,-1084.2368"/>
<text text-anchor="middle" x="95.8303" y="-1156.7253" font-family="Times,serif" font-size="14.00" fill="#000000">&lt;</text>
</g>
<!-- 7 -->
<g id="node40" class="node">
<title>7</title>
<ellipse fill="none" stroke="#000000" cx="177.6606" cy="-890.5253" rx="18" ry="18"/>
<text text-anchor="middle" x="177.6606" y="-886.3253" font-family="Times,serif" font-size="14.00" fill="#000000">7</text>
</g>
<!-- 0&#45;&gt;7 -->
<g id="edge23" class="edge">
<title>0-&gt;7</title>
<path fill="none" stroke="#000000" d="M29.4124,-1182.5584C46.6506,-1160.9989 79.6493,-1117.875 101.6606,-1077.5253 131.3437,-1023.1122 156.2888,-954.6236 168.8739,-917.483"/>
<polygon fill="#000000" stroke="#000000" points="172.2342,-918.4704 172.0894,-907.8765 165.5962,-916.2484 172.2342,-918.4704"/>
<text text-anchor="middle" x="95.8303" y="-1098.7253" font-family="Times,serif" font-size="14.00" fill="#000000">=</text>
</g>
<!-- 8 -->
<g id="node41" class="node">
<title>8</title>
<ellipse fill="none" stroke="#000000" cx="177.6606" cy="-758.5253" rx="18" ry="18"/>
<text text-anchor="middle" x="177.6606" y="-754.3253" font-family="Times,serif" font-size="14.00" fill="#000000">8</text>
</g>
<!-- 0&#45;&gt;8 -->
<g id="edge26" class="edge">
<title>0-&gt;8</title>
<path fill="none" stroke="#000000" d="M24.9101,-1179.8728C39.6156,-1144.2536 74.8546,-1057.9303 101.6606,-984.5253 127.6997,-913.2205 155.4313,-828.1046 169.0693,-785.5524"/>
<polygon fill="#000000" stroke="#000000" points="172.4352,-786.5174 172.1464,-775.9265 165.7676,-784.3859 172.4352,-786.5174"/>
<text text-anchor="middle" x="95.8303" y="-1017.7253" font-family="Times,serif" font-size="14.00" fill="#000000">!</text>
</g>
<!-- 9 -->
<g id="node42" class="node">
<title>9</title>
<ellipse fill="none" stroke="#000000" cx="177.6606" cy="-596.5253" rx="18" ry="18"/>
<text text-anchor="middle" x="177.6606" y="-592.3253" font-family="Times,serif" font-size="14.00" fill="#000000">9</text>
</g>
<!-- 0&#45;&gt;9 -->
<g id="edge29" class="edge">
<title>0-&gt;9</title>
<path fill="none" stroke="#000000" d="M22.6919,-1178.8934C45.2753,-1094.0253 142.8204,-727.454 170.3823,-623.8771"/>
<polygon fill="#000000" stroke="#000000" points="173.7792,-624.722 172.9685,-614.1582 167.0146,-622.9218 173.7792,-624.722"/>
<text text-anchor="middle" x="95.8303" y="-917.7253" font-family="Times,serif" font-size="14.00" fill="#000000">&amp;</text>
</g>
<!-- 10 -->
<g id="node43" class="node">
<title>10</title>
<ellipse fill="none" stroke="#000000" cx="177.6606" cy="-384.5253" rx="20.8887" ry="20.8887"/>
<text text-anchor="middle" x="177.6606" y="-380.3253" font-family="Times,serif" font-size="14.00" fill="#000000">10</text>
</g>
<!-- 0&#45;&gt;10 -->
<g id="edge33" class="edge">
<title>0-&gt;10</title>
<path fill="none" stroke="#000000" d="M21.4832,-1178.8104C41.8631,-1075.1625 145.6515,-547.3171 171.716,-414.7582"/>
<polygon fill="#000000" stroke="#000000" points="175.1642,-415.362 173.6594,-404.8746 168.2958,-414.0114 175.1642,-415.362"/>
<text text-anchor="middle" x="95.8303" y="-818.7253" font-family="Times,serif" font-size="14.00" fill="#000000">|</text>
</g>
<!-- 11 -->
<g id="node44" class="node">
<title>11</title>
<ellipse fill="none" stroke="#000000" cx="177.6606" cy="-229.5253" rx="20.8887" ry="20.8887"/>
<text text-anchor="middle" x="177.6606" y="-225.3253" font-family="Times,serif" font-size="14.00" fill="#000000">11</text>
</g>
<!-- 0&#45;&gt;11 -->
<g id="edge37" class="edge">
<title>0-&gt;11</title>
<path fill="none" stroke="#000000" d="M20.8261,-1178.7361C34.9591,-1089.8822 99.5168,-685.2891 155.6606,-354.5253 161.1134,-322.4007 167.6074,-285.6807 172.1202,-260.3932"/>
<polygon fill="#000000" stroke="#000000" points="175.6097,-260.7623 173.9242,-250.3024 168.7189,-259.5303 175.6097,-260.7623"/>
<text text-anchor="middle" x="95.8303" y="-749.7253" font-family="Times,serif" font-size="14.00" fill="#000000">^</text>
</g>
<!-- 12 -->
<g id="node45" class="node">
<title>12</title>
<ellipse fill="none" stroke="#000000" cx="177.6606" cy="-98.5253" rx="20.8887" ry="20.8887"/>
<text text-anchor="middle" x="177.6606" y="-94.3253" font-family="Times,serif" font-size="14.00" fill="#000000">12</text>
</g>
<!-- 0&#45;&gt;12 -->
<g id="edge40" class="edge">
<title>0-&gt;12</title>
<path fill="none" stroke="#000000" d="M19.9705,-1178.4175C30.8612,-1079.3503 85.7391,-593.0624 155.6606,-199.5253 159.9112,-175.6016 165.8197,-148.7311 170.4433,-128.7233"/>
<polygon fill="#000000" stroke="#000000" points="173.8626,-129.4719 172.7285,-118.938 167.046,-127.88 173.8626,-129.4719"/>
<text text-anchor="middle" x="95.8303" y="-612.7253" font-family="Times,serif" font-size="14.00" fill="#000000">%</text>
</g>
<!-- 1&#45;&gt;100 -->
<g id="edge2" class="edge">
<title>1-&gt;100</title>
<path fill="none" stroke="#000000" d="M190.0879,-1766.5486C204.9648,-1782.0373 230.7464,-1808.5579 253.6606,-1830.5253 280.973,-1856.7091 313.3089,-1885.7679 334.9885,-1904.9826"/>
<polygon fill="#000000" stroke="#000000" points="332.9328,-1907.8368 342.743,-1911.8382 337.5693,-1902.5925 332.9328,-1907.8368"/>
<text text-anchor="middle" x="264.5512" y="-1852.7253" font-family="Times,serif" font-size="14.00" fill="#000000">any</text>
</g>
<!-- 1&#45;&gt;101 -->
<g id="edge3" class="edge">
<title>1-&gt;101</title>
<path fill="none" stroke="#000000" d="M193.4798,-1762.8337C223.398,-1780.4382 288.7771,-1818.9088 327.9737,-1841.973"/>
<polygon fill="#000000" stroke="#000000" points="326.4705,-1845.1494 336.8642,-1847.2044 330.0205,-1839.1164 326.4705,-1845.1494"/>
<text text-anchor="middle" x="264.5512" y="-1813.7253" font-family="Times,serif" font-size="14.00" fill="#000000">+</text>
</g>
<!-- 1&#45;&gt;102 -->
<g id="edge4" class="edge">
<title>1-&gt;102</title>
<path fill="none" stroke="#000000" d="M195.4275,-1757.1404C225.1247,-1763.183 285.3885,-1775.4451 324.0318,-1783.308"/>
<polygon fill="#000000" stroke="#000000" points="323.3392,-1786.7387 333.8362,-1785.3029 324.7349,-1779.8792 323.3392,-1786.7387"/>
<text text-anchor="middle" x="264.5512" y="-1776.7253" font-family="Times,serif" font-size="14.00" fill="#000000">=</text>
</g>
<!-- 2&#45;&gt;200 -->
<g id="edge6" class="edge">
<title>2-&gt;200</title>
<path fill="none" stroke="#000000" d="M193.7979,-1640.6897C224.5679,-1656.2573 292.0027,-1690.3748 330.6923,-1709.9492"/>
<polygon fill="#000000" stroke="#000000" points="329.3665,-1713.2009 339.8695,-1714.5923 332.5266,-1706.9548 329.3665,-1713.2009"/>
<text text-anchor="middle" x="264.5512" y="-1684.7253" font-family="Times,serif" font-size="14.00" fill="#000000">any</text>
</g>
<!-- 2&#45;&gt;201 -->
<g id="edge7" class="edge">
<title>2-&gt;201</title>
<path fill="none" stroke="#000000" d="M195.4275,-1635.4565C226.0603,-1640.5102 289.2159,-1650.9295 327.6179,-1657.2651"/>
<polygon fill="#000000" stroke="#000000" points="327.3089,-1660.7613 337.7453,-1658.9358 328.4484,-1653.8547 327.3089,-1660.7613"/>
<text text-anchor="middle" x="264.5512" y="-1651.7253" font-family="Times,serif" font-size="14.00" fill="#000000">-</text>
</g>
<!-- 202 -->
<g id="node34" class="node">
<title>202</title>
<ellipse fill="none" stroke="#000000" cx="359.5026" cy="-1602.5253" rx="19.8957" ry="19.8957"/>
<text text-anchor="middle" x="359.5026" y="-1598.3253" font-family="Times,serif" font-size="14.00" fill="#000000">-=</text>
</g>
<!-- 2&#45;&gt;202 -->
<g id="edge8" class="edge">
<title>2-&gt;202</title>
<path fill="none" stroke="#000000" d="M195.4275,-1629.5942C226.7138,-1624.4326 291.9254,-1613.6741 330.0413,-1607.3858"/>
<polygon fill="#000000" stroke="#000000" points="330.7259,-1610.8203 340.0228,-1605.7391 329.5864,-1603.9136 330.7259,-1610.8203"/>
<text text-anchor="middle" x="264.5512" y="-1622.7253" font-family="Times,serif" font-size="14.00" fill="#000000">=</text>
</g>
<!-- 3&#45;&gt;300 -->
<g id="edge10" class="edge">
<title>3-&gt;300</title>
<path fill="none" stroke="#000000" d="M194.7679,-1487.2641C225.4462,-1497.5553 290.2051,-1519.2791 328.7599,-1532.2125"/>
<polygon fill="#000000" stroke="#000000" points="327.8311,-1535.5926 338.425,-1535.4547 330.0574,-1528.956 327.8311,-1535.5926"/>
<text text-anchor="middle" x="264.5512" y="-1517.7253" font-family="Times,serif" font-size="14.00" fill="#000000">any</text>
</g>
<!-- 302 -->
<g id="node36" class="node">
<title>302</title>
<ellipse fill="none" stroke="#000000" cx="359.5026" cy="-1481.5253" rx="21.1227" ry="21.1227"/>
<text text-anchor="middle" x="359.5026" y="-1477.3253" font-family="Times,serif" font-size="14.00" fill="#000000">*=</text>
</g>
<!-- 3&#45;&gt;302 -->
<g id="edge11" class="edge">
<title>3-&gt;302</title>
<path fill="none" stroke="#000000" d="M195.7611,-1481.5253C226.6358,-1481.5253 289.8416,-1481.5253 328.061,-1481.5253"/>
<polygon fill="#000000" stroke="#000000" points="328.1307,-1485.0254 338.1307,-1481.5253 328.1306,-1478.0254 328.1307,-1485.0254"/>
<text text-anchor="middle" x="264.5512" y="-1485.7253" font-family="Times,serif" font-size="14.00" fill="#000000">=</text>
</g>
<!-- 4&#45;&gt;400 -->
<g id="edge13" class="edge">
<title>4-&gt;400</title>
<path fill="none" stroke="#000000" d="M194.7679,-1363.4522C225.5274,-1374.109 290.548,-1396.6357 329.0653,-1409.9802"/>
<polygon fill="#000000" stroke="#000000" points="328.1181,-1413.3561 338.7129,-1413.3227 330.4097,-1406.7418 328.1181,-1413.3561"/>
<text text-anchor="middle" x="264.5512" y="-1394.7253" font-family="Times,serif" font-size="14.00" fill="#000000">any</text>
</g>
<!-- 4&#45;&gt;402 -->
<g id="edge14" class="edge">
<title>4-&gt;402</title>
<path fill="none" stroke="#000000" d="M195.7611,-1357.5253C226.061,-1357.5253 287.4994,-1357.5253 325.9008,-1357.5253"/>
<polygon fill="#000000" stroke="#000000" points="326.0761,-1361.0254 336.0761,-1357.5253 326.0761,-1354.0254 326.0761,-1361.0254"/>
<text text-anchor="middle" x="264.5512" y="-1361.7253" font-family="Times,serif" font-size="14.00" fill="#000000">=</text>
</g>
<!-- 5&#45;&gt;500 -->
<g id="edge16" class="edge">
<title>5-&gt;500</title>
<path fill="none" stroke="#000000" d="M194.7679,-1232.0167C225.5274,-1243.6884 290.548,-1268.3605 329.0653,-1282.9759"/>
<polygon fill="#000000" stroke="#000000" points="328.1217,-1286.3613 338.7129,-1286.6367 330.6051,-1279.8166 328.1217,-1286.3613"/>
<text text-anchor="middle" x="264.5512" y="-1265.7253" font-family="Times,serif" font-size="14.00" fill="#000000">any</text>
</g>
<!-- 5&#45;&gt;501 -->
<g id="edge17" class="edge">
<title>5-&gt;501</title>
<path fill="none" stroke="#000000" d="M195.7611,-1225.8239C225.322,-1226.3116 284.5209,-1227.2883 323.0506,-1227.9239"/>
<polygon fill="#000000" stroke="#000000" points="323.2717,-1231.428 333.3281,-1228.0935 323.3872,-1224.4289 323.2717,-1231.428"/>
<text text-anchor="middle" x="264.5512" y="-1230.7253" font-family="Times,serif" font-size="14.00" fill="#000000">&gt;</text>
</g>
<!-- 5&#45;&gt;502 -->
<g id="edge18" class="edge">
<title>5-&gt;502</title>
<path fill="none" stroke="#000000" d="M194.7679,-1219.2221C224.5534,-1208.2476 286.465,-1185.4362 325.3289,-1171.1167"/>
<polygon fill="#000000" stroke="#000000" points="326.9829,-1174.2373 335.1562,-1167.4958 324.5628,-1167.669 326.9829,-1174.2373"/>
<text text-anchor="middle" x="264.5512" y="-1199.7253" font-family="Times,serif" font-size="14.00" fill="#000000">=</text>
</g>
<!-- 6&#45;&gt;600 -->
<g id="edge20" class="edge">
<title>6-&gt;600</title>
<path fill="none" stroke="#000000" d="M195.4275,-1062.7496C226.0603,-1068.3087 289.2159,-1079.77 327.6179,-1086.739"/>
<polygon fill="#000000" stroke="#000000" points="327.281,-1090.235 337.7453,-1088.5769 328.531,-1083.3475 327.281,-1090.235"/>
<text text-anchor="middle" x="264.5512" y="-1080.7253" font-family="Times,serif" font-size="14.00" fill="#000000">any</text>
</g>
<!-- 6&#45;&gt;601 -->
<g id="edge21" class="edge">
<title>6-&gt;601</title>
<path fill="none" stroke="#000000" d="M195.4275,-1056.3011C224.9983,-1050.9347 284.8762,-1040.0682 323.5373,-1033.0522"/>
<polygon fill="#000000" stroke="#000000" points="324.6219,-1036.4126 333.8362,-1031.1832 323.372,-1029.5251 324.6219,-1036.4126"/>
<text text-anchor="middle" x="264.5512" y="-1048.7253" font-family="Times,serif" font-size="14.00" fill="#000000">&lt;</text>
</g>
<!-- 6&#45;&gt;602 -->
<g id="edge22" class="edge">
<title>6-&gt;602</title>
<path fill="none" stroke="#000000" d="M193.4798,-1050.5649C223.398,-1033.6185 288.7771,-996.5861 327.9737,-974.3841"/>
<polygon fill="#000000" stroke="#000000" points="329.888,-977.3223 336.8642,-969.3483 326.438,-971.2315 329.888,-977.3223"/>
<text text-anchor="middle" x="264.5512" y="-1017.7253" font-family="Times,serif" font-size="14.00" fill="#000000">=</text>
</g>
<!-- 7&#45;&gt;700 -->
<g id="edge24" class="edge">
<title>7-&gt;700</title>
<path fill="none" stroke="#000000" d="M195.7611,-890.5253C226.3894,-890.5253 288.8351,-890.5253 327.1415,-890.5253"/>
<polygon fill="#000000" stroke="#000000" points="327.2593,-894.0254 337.2592,-890.5253 327.2592,-887.0254 327.2593,-894.0254"/>
<text text-anchor="middle" x="264.5512" y="-894.7253" font-family="Times,serif" font-size="14.00" fill="#000000">any</text>
</g>
<!-- 7&#45;&gt;701 -->
<g id="edge25" class="edge">
<title>7-&gt;701</title>
<path fill="none" stroke="#000000" d="M194.7679,-884.3162C224.4723,-873.5349 286.1278,-851.1569 325.0107,-837.0443"/>
<polygon fill="#000000" stroke="#000000" points="326.6441,-840.1749 334.85,-833.473 324.2559,-833.5949 326.6441,-840.1749"/>
<text text-anchor="middle" x="264.5512" y="-864.7253" font-family="Times,serif" font-size="14.00" fill="#000000">=</text>
</g>
<!-- 8&#45;&gt;800 -->
<g id="edge27" class="edge">
<title>8-&gt;800</title>
<path fill="none" stroke="#000000" d="M195.7611,-758.5253C226.3894,-758.5253 288.8351,-758.5253 327.1415,-758.5253"/>
<polygon fill="#000000" stroke="#000000" points="327.2593,-762.0254 337.2592,-758.5253 327.2592,-755.0254 327.2593,-762.0254"/>
<text text-anchor="middle" x="264.5512" y="-762.7253" font-family="Times,serif" font-size="14.00" fill="#000000">any</text>
</g>
<!-- 8&#45;&gt;801 -->
<g id="edge28" class="edge">
<title>8-&gt;801</title>
<path fill="none" stroke="#000000" d="M194.7679,-752.5044C225.0404,-741.8498 288.4979,-719.5157 327.2163,-705.8886"/>
<polygon fill="#000000" stroke="#000000" points="328.6913,-709.08 336.9621,-702.4585 326.3673,-702.477 328.6913,-709.08"/>
<text text-anchor="middle" x="264.5512" y="-733.7253" font-family="Times,serif" font-size="14.00" fill="#000000">=</text>
</g>
<!-- 9&#45;&gt;900 -->
<g id="edge30" class="edge">
<title>9-&gt;900</title>
<path fill="none" stroke="#000000" d="M195.4275,-599.8473C225.8969,-605.5443 288.5432,-617.2577 327.0014,-624.4484"/>
<polygon fill="#000000" stroke="#000000" points="326.6874,-627.9503 337.1604,-626.3479 327.974,-621.0695 326.6874,-627.9503"/>
<text text-anchor="middle" x="264.5512" y="-618.7253" font-family="Times,serif" font-size="14.00" fill="#000000">any</text>
</g>
<!-- 9&#45;&gt;901 -->
<g id="edge31" class="edge">
<title>9-&gt;901</title>
<path fill="none" stroke="#000000" d="M195.4275,-593.1057C224.6325,-587.4844 283.3992,-576.1733 322.0927,-568.7258"/>
<polygon fill="#000000" stroke="#000000" points="322.7913,-572.1556 331.9495,-566.8286 321.4682,-565.2818 322.7913,-572.1556"/>
<text text-anchor="middle" x="264.5512" y="-584.7253" font-family="Times,serif" font-size="14.00" fill="#000000">=</text>
</g>
<!-- 9&#45;&gt;902 -->
<g id="edge32" class="edge">
<title>9-&gt;902</title>
<path fill="none" stroke="#000000" d="M193.1643,-587.0615C222.2293,-569.3197 285.5389,-530.6743 325.128,-506.5082"/>
<polygon fill="#000000" stroke="#000000" points="326.9665,-509.4866 333.6783,-501.289 323.3193,-503.5118 326.9665,-509.4866"/>
<text text-anchor="middle" x="264.5512" y="-551.7253" font-family="Times,serif" font-size="14.00" fill="#000000">&amp;&amp;</text>
</g>
<!-- 10&#45;&gt;1000 -->
<g id="edge34" class="edge">
<title>10-&gt;1000</title>
<path fill="none" stroke="#000000" d="M198.1667,-388.0212C229.615,-393.3824 290.0226,-403.6805 327.3365,-410.0417"/>
<polygon fill="#000000" stroke="#000000" points="327.2154,-413.5715 337.6614,-411.8019 328.3918,-406.6711 327.2154,-413.5715"/>
<text text-anchor="middle" x="264.5512" y="-404.7253" font-family="Times,serif" font-size="14.00" fill="#000000">any</text>
</g>
<!-- 10&#45;&gt;1001 -->
<g id="edge35" class="edge">
<title>10-&gt;1001</title>
<path fill="none" stroke="#000000" d="M198.1667,-381.0295C229.6651,-375.6597 290.215,-365.3373 327.5146,-358.9786"/>
<polygon fill="#000000" stroke="#000000" points="328.1054,-362.4284 337.3749,-357.2976 326.9289,-355.528 328.1054,-362.4284"/>
<text text-anchor="middle" x="264.5512" y="-374.7253" font-family="Times,serif" font-size="14.00" fill="#000000">=</text>
</g>
<!-- 10&#45;&gt;1002 -->
<g id="edge36" class="edge">
<title>10-&gt;1002</title>
<path fill="none" stroke="#000000" d="M196.0973,-375.0962C227.8109,-358.8768 292.9121,-325.5819 330.6683,-306.2722"/>
<polygon fill="#000000" stroke="#000000" points="332.3317,-309.3527 339.6412,-301.6831 329.1443,-303.1204 332.3317,-309.3527"/>
<text text-anchor="middle" x="264.5512" y="-347.7253" font-family="Times,serif" font-size="14.00" fill="#000000">|</text>
</g>
<!-- 11&#45;&gt;1100 -->
<g id="edge38" class="edge">
<title>11-&gt;1100</title>
<path fill="none" stroke="#000000" d="M198.5202,-229.5253C230.0209,-229.5253 289.9911,-229.5253 327.1778,-229.5253"/>
<polygon fill="#000000" stroke="#000000" points="327.4749,-233.0254 337.4748,-229.5253 327.4748,-226.0254 327.4749,-233.0254"/>
<text text-anchor="middle" x="264.5512" y="-233.7253" font-family="Times,serif" font-size="14.00" fill="#000000">any</text>
</g>
<!-- 11&#45;&gt;1101 -->
<g id="edge39" class="edge">
<title>11-&gt;1101</title>
<path fill="none" stroke="#000000" d="M197.467,-222.4455C228.3936,-211.3907 288.505,-189.9036 326.1818,-176.436"/>
<polygon fill="#000000" stroke="#000000" points="327.4696,-179.6926 335.708,-173.0308 325.1134,-173.101 327.4696,-179.6926"/>
<text text-anchor="middle" x="264.5512" y="-204.7253" font-family="Times,serif" font-size="14.00" fill="#000000">=</text>
</g>
<!-- 12&#45;&gt;1200 -->
<g id="edge41" class="edge">
<title>12-&gt;1200</title>
<path fill="none" stroke="#000000" d="M198.5202,-98.5253C229.6813,-98.5253 288.7012,-98.5253 325.9671,-98.5253"/>
<polygon fill="#000000" stroke="#000000" points="326.3193,-102.0254 336.3193,-98.5253 326.3192,-95.0254 326.3193,-102.0254"/>
<text text-anchor="middle" x="264.5512" y="-102.7253" font-family="Times,serif" font-size="14.00" fill="#000000">any</text>
</g>
<!-- 12&#45;&gt;1201 -->
<g id="edge42" class="edge">
<title>12-&gt;1201</title>
<path fill="none" stroke="#000000" d="M197.1209,-91.0341C227.1466,-79.4757 285.261,-57.1046 323.2056,-42.4978"/>
<polygon fill="#000000" stroke="#000000" points="324.7853,-45.6402 332.8604,-38.7812 322.2705,-39.1075 324.7853,-45.6402"/>
<text text-anchor="middle" x="264.5512" y="-71.7253" font-family="Times,serif" font-size="14.00" fill="#000000">=</text>
</g>
</g>
</svg>