<?xml version="1.0" encoding="UTF-8" standalone="no"?><!DOCTYPE svg PUBLIC "-//W3C//DTD SVG 1.1//EN" "http://www.w3.org/Graphics/SVG/1.1/DTD/svg11.dtd"><!-- Generated by graphviz version 2.40.1 (20161225.0304)
 --><!-- Title: G Pages: 1 --><svg xmlns="http://www.w3.org/2000/svg" xmlns:xlink="http://www.w3.org/1999/xlink" width="990pt" height="336pt" viewBox="0.00 0.00 989.57 335.60">
<g id="graph0" class="graph" transform="scale(1 1) rotate(0) translate(4 331.5978)">
<title>G</title>
<polygon fill="#ffffff" stroke="transparent" points="-4,4 -4,-331.5978 985.574,-331.5978 985.574,4 -4,4"/>
<!-- end1 -->
<g id="node1" class="node">
<title>end1</title>
<ellipse fill="none" stroke="#00ff00" cx="375.3471" cy="-302.3655" rx="21.4296" ry="21.4296"/>
<ellipse fill="none" stroke="#00ff00" cx="375.3471" cy="-302.3655" rx="25.4668" ry="25.4668"/>
<text text-anchor="middle" x="375.3471" y="-298.1655" font-family="Times,serif" font-size="14.00" fill="#00ff00">int</text>
</g>
<!-- end2 -->
<g id="node2" class="node">
<title>end2</title>
<ellipse fill="none" stroke="#00ff00" cx="566.844" cy="-154.3655" rx="21.4296" ry="21.4296"/>
<ellipse fill="none" stroke="#00ff00" cx="566.844" cy="-154.3655" rx="25.4668" ry="25.4668"/>
<text text-anchor="middle" x="566.844" y="-150.1655" font-family="Times,serif" font-size="14.00" fill="#00ff00">int</text>
</g>
<!-- end3 -->
<g id="node3" class="node">
<title>end3</title>
<ellipse fill="none" stroke="#00ff00" cx="755.1579" cy="-176.3655" rx="28.9406" ry="28.9406"/>
<ellipse fill="none" stroke="#00ff00" cx="755.1579" cy="-176.3655" rx="32.9693" ry="32.9693"/>
<text text-anchor="middle" x="755.1579" y="-172.1655" font-family="Times,serif" font-size="14.00" fill="#00ff00">float</text>
</g>
<!-- end4 -->
<g id="node4" class="node">
<title>end4</title>
<ellipse fill="none" stroke="#00ff00" cx="948.8402" cy="-105.3655" rx="28.9406" ry="28.9406"/>
<ellipse fill="none" stroke="#00ff00" cx="948.8402" cy="-105.3655" rx="32.9693" ry="32.9693"/>
<text text-anchor="middle" x="948.8402" y="-101.1655" font-family="Times,serif" font-size="14.00" fill="#00ff00">float</text>
</g>
<!-- error -->
<g id="node5" class="node">
<title>error</title>
<ellipse fill="none" stroke="#ff0000" cx="755.1579" cy="-254.3655" rx="23.2513" ry="23.2513"/>
<ellipse fill="none" stroke="#ff0000" cx="755.1579" cy="-254.3655" rx="27.2317" ry="27.2317"/>
<text text-anchor="middle" x="755.1579" y="-250.1655" font-family="Times,serif" font-size="14.00" fill="#ff0000">Err</text>
</g>
<!-- error1 -->
<g id="node6" class="node">
<title>error1</title>
<ellipse fill="none" stroke="#ff0000" cx="566.844" cy="-83.3655" rx="23.2513" ry="23.2513"/>
<ellipse fill="none" stroke="#ff0000" cx="566.844" cy="-83.3655" rx="27.2317" ry="27.2317"/>
<text text-anchor="middle" x="566.844" y="-79.1655" font-family="Times,serif" font-size="14.00" fill="#ff0000">Err</text>
</g>
<!-- error2 -->
<g id="node7" class="node">
<title>error2</title>
<ellipse fill="none" stroke="#ff0000" cx="948.8402" cy="-27.3655" rx="23.2513" ry="23.2513"/>
<ellipse fill="none" stroke="#ff0000" cx="948.8402" cy="-27.3655" rx="27.2317" ry="27.2317"/>
<text text-anchor="middle" x="948.8402" y="-23.1655" font-family="Times,serif" font-size="14.00" fill="#ff0000">Err</text>
</g>
<!-- error3 -->
<g id="node8" class="node">
<title>error3</title>
<ellipse fill="none" stroke="#ff0000" cx="375.3471" cy="-91.3655" rx="23.2513" ry="23.2513"/>
<ellipse fill="none" stroke="#ff0000" cx="375.3471" cy="-91.3655" rx="27.2317" ry="27.2317"/>
<text text-anchor="middle" x="375.3471" y="-87.1655" font-family="Times,serif" font-size="14.00" fill="#ff0000">Err</text>
</g>
<!-- 0 -->
<g id="node9" class="node">
<title>0</title>
<ellipse fill="none" stroke="#000000" cx="18" cy="-154.3655" rx="18" ry="18"/>
<text text-anchor="middle" x="18" y="-150.1655" font-family="Times,serif" font-size="14.00" fill="#000000">0</text>
</g>
<!-- 1 -->
<g id="node10" class="node">
<title>1</title>
<ellipse fill="none" stroke="#000000" cx="193.2158" cy="-229.3655" rx="18" ry="18"/>
<text text-anchor="middle" x="193.2158" y="-225.1655" font-family="Times,serif" font-size="14.00" fill="#000000">1</text>
</g>
<!-- 0&#45;&gt;1 -->
<g id="edge1" class="edge">
<title>0-&gt;1</title>
<path fill="none" stroke="#000000" d="M34.8004,-161.5568C65.4132,-174.6605 130.4782,-202.5111 166.9805,-218.1357"/>
<polygon fill="#000000" stroke="#000000" points="165.8957,-221.4785 176.4662,-222.196 168.6503,-215.0432 165.8957,-221.4785"/>
<text text-anchor="middle" x="105.6079" y="-199.5655" font-family="Times,serif" font-size="14.00" fill="#000000">0</text>
</g>
<!-- 2 -->
<g id="node11" class="node">
<title>2</title>
<ellipse fill="none" stroke="#000000" cx="375.3471" cy="-154.3655" rx="18" ry="18"/>
<text text-anchor="middle" x="375.3471" y="-150.1655" font-family="Times,serif" font-size="14.00" fill="#000000">2</text>
</g>
<!-- 0&#45;&gt;2 -->
<g id="edge6" class="edge">
<title>0-&gt;2</title>
<path fill="none" stroke="#000000" d="M36.2122,-154.3655C94.3993,-154.3655 276.1285,-154.3655 346.816,-154.3655"/>
<polygon fill="#000000" stroke="#000000" points="347.1717,-157.8656 357.1716,-154.3655 347.1716,-150.8656 347.1717,-157.8656"/>
<text text-anchor="middle" x="193.2158" y="-158.5655" font-family="Times,serif" font-size="14.00" fill="#000000">1-9</text>
</g>
<!-- 3 -->
<g id="node13" class="node">
<title>3</title>
<ellipse fill="none" stroke="#000000" cx="193.2158" cy="-100.3655" rx="18" ry="18"/>
<text text-anchor="middle" x="193.2158" y="-96.1655" font-family="Times,serif" font-size="14.00" fill="#000000">3</text>
</g>
<!-- 0&#45;&gt;3 -->
<g id="edge7" class="edge">
<title>0-&gt;3</title>
<path fill="none" stroke="#000000" d="M35.4409,-148.9904C66.0088,-139.5696 129.467,-120.0124 165.9029,-108.7831"/>
<polygon fill="#000000" stroke="#000000" points="167.3198,-112.009 175.8454,-105.7189 165.2581,-105.3195 167.3198,-112.009"/>
<text text-anchor="middle" x="105.6079" y="-135.5655" font-family="Times,serif" font-size="14.00" fill="#000000">- or +</text>
</g>
<!-- 5 -->
<g id="node14" class="node">
<title>5</title>
<ellipse fill="none" stroke="#000000" cx="375.3471" cy="-24.3655" rx="18" ry="18"/>
<text text-anchor="middle" x="375.3471" y="-20.1655" font-family="Times,serif" font-size="14.00" fill="#000000">5</text>
</g>
<!-- 0&#45;&gt;5 -->
<g id="edge11" class="edge">
<title>0-&gt;5</title>
<path fill="none" stroke="#000000" d="M32.138,-142.8132C58.4997,-121.9315 117.7123,-78.0795 175.2158,-56.5655 233.8148,-34.6417 307.5449,-27.6391 347.1279,-25.4066"/>
<polygon fill="#000000" stroke="#000000" points="347.5334,-28.8908 357.3459,-24.895 347.1833,-21.8995 347.5334,-28.8908"/>
<text text-anchor="middle" x="193.2158" y="-61.5655" font-family="Times,serif" font-size="14.00" fill="#000000">.</text>
</g>
<!-- 1&#45;&gt;end1 -->
<g id="edge17" class="edge">
<title>1-&gt;end1</title>
<path fill="none" stroke="#000000" d="M210.0238,-236.1023C240.0615,-248.1417 303.451,-273.5489 342.423,-289.1692"/>
<polygon fill="#000000" stroke="#000000" points="341.1856,-292.4439 351.7699,-292.9156 343.7899,-285.9464 341.1856,-292.4439"/>
<text text-anchor="middle" x="279.5987" y="-271.5655" font-family="Times,serif" font-size="14.00" fill="#000000">any</text>
</g>
<!-- 1&#45;&gt;1 -->
<g id="edge2" class="edge">
<title>1-&gt;1</title>
<path fill="none" stroke="#000000" d="M179.9607,-241.9103C173.5123,-253.2352 177.9306,-265.3655 193.2158,-265.3655 204.0826,-265.3655 209.457,-259.2344 209.3389,-251.6206"/>
<polygon fill="#000000" stroke="#000000" points="212.6602,-250.5093 206.4709,-241.9103 205.9469,-252.4922 212.6602,-250.5093"/>
<text text-anchor="middle" x="193.2158" y="-269.5655" font-family="Times,serif" font-size="14.00" fill="#000000">0</text>
</g>
<!-- 1&#45;&gt;2 -->
<g id="edge3" class="edge">
<title>1-&gt;2</title>
<path fill="none" stroke="#000000" d="M210.0238,-222.4441C241.8744,-209.3284 311.2239,-180.7709 349.1997,-165.1328"/>
<polygon fill="#000000" stroke="#000000" points="350.6657,-168.3143 358.5797,-161.2702 348.0003,-161.8416 350.6657,-168.3143"/>
<text text-anchor="middle" x="279.5987" y="-202.5655" font-family="Times,serif" font-size="14.00" fill="#000000">1-9</text>
</g>
<!-- 4 -->
<g id="node12" class="node">
<title>4</title>
<ellipse fill="none" stroke="#000000" cx="566.844" cy="-215.3655" rx="18" ry="18"/>
<text text-anchor="middle" x="566.844" y="-211.1655" font-family="Times,serif" font-size="14.00" fill="#000000">4</text>
</g>
<!-- 1&#45;&gt;4 -->
<g id="edge5" class="edge">
<title>1-&gt;4</title>
<path fill="none" stroke="#000000" d="M211.2367,-228.6903C271.2726,-226.4407 464.8259,-219.1882 538.2437,-216.4372"/>
<polygon fill="#000000" stroke="#000000" points="538.7043,-219.9225 548.5662,-216.0504 538.4422,-212.9274 538.7043,-219.9225"/>
<text text-anchor="middle" x="375.3471" y="-227.5655" font-family="Times,serif" font-size="14.00" fill="#000000">.</text>
</g>
<!-- 2&#45;&gt;end2 -->
<g id="edge18" class="edge">
<title>2-&gt;end2</title>
<path fill="none" stroke="#000000" d="M393.3627,-154.3655C424.8821,-154.3655 490.5627,-154.3655 531.4506,-154.3655"/>
<polygon fill="#000000" stroke="#000000" points="531.5259,-157.8656 541.5259,-154.3655 531.5258,-150.8656 531.5259,-157.8656"/>
<text text-anchor="middle" x="471.0956" y="-158.5655" font-family="Times,serif" font-size="14.00" fill="#000000">any</text>
</g>
<!-- 2&#45;&gt;2 -->
<g id="edge4" class="edge">
<title>2-&gt;2</title>
<path fill="none" stroke="#000000" d="M361.3409,-166.1649C353.6042,-177.6961 358.2729,-190.3655 375.3471,-190.3655 387.7526,-190.3655 393.6093,-183.6774 392.9173,-175.5971"/>
<polygon fill="#000000" stroke="#000000" points="396.1621,-174.2823 389.3533,-166.1649 389.6139,-176.7566 396.1621,-174.2823"/>
<text text-anchor="middle" x="375.3471" y="-194.5655" font-family="Times,serif" font-size="14.00" fill="#000000">0-9</text>
</g>
<!-- 2&#45;&gt;4 -->
<g id="edge15" class="edge">
<title>2-&gt;4</title>
<path fill="none" stroke="#000000" d="M392.6789,-159.8865C426.2182,-170.5702 500.1994,-194.1364 540.0948,-206.8448"/>
<polygon fill="#000000" stroke="#000000" points="539.0987,-210.2007 549.6893,-209.901 541.2234,-203.5309 539.0987,-210.2007"/>
<text text-anchor="middle" x="471.0956" y="-192.5655" font-family="Times,serif" font-size="14.00" fill="#000000">.</text>
</g>
<!-- 4&#45;&gt;end3 -->
<g id="edge20" class="edge">
<title>4-&gt;end3</title>
<path fill="none" stroke="#000000" d="M584.5601,-211.6965C613.7645,-205.6482 672.792,-193.4236 713.1493,-185.0656"/>
<polygon fill="#000000" stroke="#000000" points="713.8955,-188.4854 722.9779,-183.0301 712.4759,-181.6308 713.8955,-188.4854"/>
<text text-anchor="middle" x="658.3168" y="-201.5655" font-family="Times,serif" font-size="14.00" fill="#000000">any</text>
</g>
<!-- 4&#45;&gt;error -->
<g id="edge19" class="edge">
<title>4-&gt;error</title>
<path fill="none" stroke="#000000" d="M584.5601,-219.0346C615.0503,-225.3491 678.0473,-238.3959 718.367,-246.7461"/>
<polygon fill="#000000" stroke="#000000" points="717.8423,-250.2116 728.3444,-248.8124 719.262,-243.3571 717.8423,-250.2116"/>
<text text-anchor="middle" x="658.3168" y="-239.5655" font-family="Times,serif" font-size="14.00" fill="#000000">.</text>
</g>
<!-- 20 -->
<g id="node15" class="node">
<title>20</title>
<ellipse fill="none" stroke="#000000" cx="755.1579" cy="-66.3655" rx="20.8887" ry="20.8887"/>
<text text-anchor="middle" x="755.1579" y="-62.1655" font-family="Times,serif" font-size="14.00" fill="#000000">20</text>
</g>
<!-- 4&#45;&gt;20 -->
<g id="edge14" class="edge">
<title>4-&gt;20</title>
<path fill="none" stroke="#000000" d="M580.9981,-204.1663C612.9406,-178.8924 690.937,-117.1792 730.8138,-85.6274"/>
<polygon fill="#000000" stroke="#000000" points="733.0438,-88.3261 738.7142,-79.3764 728.7003,-82.8366 733.0438,-88.3261"/>
<text text-anchor="middle" x="658.3168" y="-154.5655" font-family="Times,serif" font-size="14.00" fill="#000000">0-9</text>
</g>
<!-- 3&#45;&gt;error3 -->
<g id="edge9" class="edge">
<title>3-&gt;error3</title>
<path fill="none" stroke="#000000" d="M211.2247,-97.9243C225.7642,-96.0718 246.7659,-93.6628 265.2158,-92.5655 289.219,-91.138 316.2152,-90.8233 337.4719,-90.8727"/>
<polygon fill="#000000" stroke="#000000" points="337.6944,-94.3738 347.7123,-90.9253 337.7304,-87.3739 337.6944,-94.3738"/>
<text text-anchor="middle" x="279.5987" y="-97.5655" font-family="Times,serif" font-size="14.00" fill="#000000">other</text>
</g>
<!-- 3&#45;&gt;2 -->
<g id="edge8" class="edge">
<title>3-&gt;2</title>
<path fill="none" stroke="#000000" d="M210.6793,-105.5433C242.5003,-114.9779 310.1333,-135.0303 348.0763,-146.28"/>
<polygon fill="#000000" stroke="#000000" points="347.3541,-149.7164 357.9365,-149.2035 349.3439,-143.0052 347.3541,-149.7164"/>
<text text-anchor="middle" x="279.5987" y="-133.5655" font-family="Times,serif" font-size="14.00" fill="#000000">0-9</text>
</g>
<!-- 3&#45;&gt;5 -->
<g id="edge10" class="edge">
<title>3-&gt;5</title>
<path fill="none" stroke="#000000" d="M210.0238,-93.3519C241.8744,-80.0612 311.2239,-51.123 349.1997,-35.2763"/>
<polygon fill="#000000" stroke="#000000" points="350.6988,-38.4434 358.5797,-31.3622 348.0031,-31.9832 350.6988,-38.4434"/>
<text text-anchor="middle" x="279.5987" y="-73.5655" font-family="Times,serif" font-size="14.00" fill="#000000">.</text>
</g>
<!-- 5&#45;&gt;error1 -->
<g id="edge13" class="edge">
<title>5-&gt;error1</title>
<path fill="none" stroke="#000000" d="M392.6789,-29.7054C423.809,-39.2966 489.7795,-59.622 530.9974,-72.3212"/>
<polygon fill="#000000" stroke="#000000" points="530.0674,-75.697 540.6547,-75.2966 532.1285,-69.0073 530.0674,-75.697"/>
<text text-anchor="middle" x="471.0956" y="-62.5655" font-family="Times,serif" font-size="14.00" fill="#000000">other</text>
</g>
<!-- 5&#45;&gt;20 -->
<g id="edge12" class="edge">
<title>5-&gt;20</title>
<path fill="none" stroke="#000000" d="M393.5948,-23.714C431.2591,-22.6258 520.274,-21.3807 594.2095,-30.5655 640.605,-36.3291 693.3113,-49.31 725.3918,-57.9533"/>
<polygon fill="#000000" stroke="#000000" points="724.4797,-61.3323 735.0487,-60.5924 726.3252,-54.5799 724.4797,-61.3323"/>
<text text-anchor="middle" x="566.844" y="-35.5655" font-family="Times,serif" font-size="14.00" fill="#000000">0-9</text>
</g>
<!-- 20&#45;&gt;end4 -->
<g id="edge21" class="edge">
<title>20-&gt;end4</title>
<path fill="none" stroke="#000000" d="M775.5193,-70.4655C806.4986,-76.7035 866.1464,-88.7142 906.7191,-96.884"/>
<polygon fill="#000000" stroke="#000000" points="906.1,-100.3295 916.5942,-98.8724 907.4818,-93.4672 906.1,-100.3295"/>
<text text-anchor="middle" x="851.9991" y="-91.5655" font-family="Times,serif" font-size="14.00" fill="#000000">any</text>
</g>
<!-- 20&#45;&gt;error2 -->
<g id="edge22" class="edge">
<title>20-&gt;error2</title>
<path fill="none" stroke="#000000" d="M775.5193,-62.2656C807.8625,-55.7529 871.4541,-42.9481 911.9629,-34.7912"/>
<polygon fill="#000000" stroke="#000000" points="912.8687,-38.1791 921.9811,-32.7739 911.4869,-31.3168 912.8687,-38.1791"/>
<text text-anchor="middle" x="851.9991" y="-52.5655" font-family="Times,serif" font-size="14.00" fill="#000000">.</text>
</g>
<!-- 20&#45;&gt;20 -->
<g id="edge16" class="edge">
<title>20-&gt;20</title>
<path fill="none" stroke="#000000" d="M739.9045,-80.6526C733.386,-92.5878 738.4704,-105.059 755.1579,-105.059 767.2825,-105.059 773.2818,-98.4756 773.156,-90.2975"/>
<polygon fill="#000000" stroke="#000000" points="776.5148,-89.3127 770.4114,-80.6526 769.7821,-91.2287 776.5148,-89.3127"/>
<text text-anchor="middle" x="755.1579" y="-109.259" font-family="Times,serif" font-size="14.00" fill="#000000">0-9</text>
</g>
</g>
</svg>